<svg viewBox="0 0 62 63" version="1.1" xmlns="http://www.w3.org/2000/svg" xmlns:xlink="http://www.w3.org/1999/xlink">
  <g stroke="none" stroke-width="1" fill="none" fill-rule="evenodd">
    <path d="M36.0000429,17.1428096 L36.0000429,35.1428311 C36.0000429,35.8660462 35.4375422,36.4285469 34.7143271,36.4285469 L21.8571689,36.4285469 C21.1339538,36.4285469 20.5714531,35.8660462 20.5714531,35.1428311 L20.5714531,32.5713995 C20.5714531,31.8481843 21.1339538,31.2856836 21.8571689,31.2856836 L30.8571796,31.2856836 L30.8571796,17.1428096 C30.8571796,16.4195945 31.4196803,15.8570938 32.1428955,15.8570938 L34.7143271,15.8570938 C35.4375422,15.8570938 36.0000429,16.4195945 36.0000429,17.1428096 Z M52.7143486,31.2856836 C52.7143486,19.2320978 42.9107654,9.42851472 30.8571796,9.42851472 C18.8035938,9.42851472 9.00001073,19.2320978 9.00001073,31.2856836 C9.00001073,43.3392694 18.8035938,53.1428525 30.8571796,53.1428525 C42.9107654,53.1428525 52.7143486,43.3392694 52.7143486,31.2856836 Z M61.7143593,31.2856836 C61.7143593,48.3214182 47.8929142,62.1428633 30.8571796,62.1428633 C13.821445,62.1428633 0,48.3214182 0,31.2856836 C0,14.249949 13.821445,0.42850399 30.8571796,0.42850399 C47.8929142,0.42850399 61.7143593,14.249949 61.7143593,31.2856836 Z" fill="#FFFFFF"></path>
  </g>
</svg>
