<svg viewBox="0 0 78 73" version="1.1" xmlns="http://www.w3.org/2000/svg" xmlns:xlink="http://www.w3.org/1999/xlink">
  <g stroke="none" stroke-width="1" fill="none" fill-rule="evenodd">
    <path d="M23.8259213,36.2856836 C19.6473449,36.4062195 15.8705546,38.2142574 13.1785871,41.4285469 L7.79465215,41.4285469 C3.77679022,41.4285469 3.941617e-16,39.4999732 3.941617e-16,35.0401464 C3.941617e-16,31.7856783 -0.120535858,20.8570938 4.9821488,20.8570938 C5.8258998,20.8570938 10.0044762,24.2722765 15.4285898,24.2722765 C17.2768063,24.2722765 19.0446656,23.9508475 20.7723462,23.3481682 C20.6518103,24.2320978 20.5714531,25.1160275 20.5714531,25.9999571 C20.5714531,29.6562114 21.7366331,33.2722872 23.8259213,36.2856836 Z M66.8572226,61.8794641 C66.8572226,68.3884005 62.5581103,72.2857265 56.1295312,72.2857265 L21.0134179,72.2857265 C14.5848388,72.2857265 10.2857265,68.3884005 10.2857265,61.8794641 C10.2857265,52.7990962 12.4151934,38.8571153 24.1875288,38.8571153 C25.5536019,38.8571153 30.5357507,44.4419434 38.5714746,44.4419434 C46.6071984,44.4419434 51.5893472,38.8571153 52.9554203,38.8571153 C64.7277557,38.8571153 66.8572226,52.7990962 66.8572226,61.8794641 Z M25.7143164,10.5713673 C25.7143164,16.2365526 21.0937751,20.8570938 15.4285898,20.8570938 C9.7634045,20.8570938 5.14286327,16.2365526 5.14286327,10.5713673 C5.14286327,4.90618194 9.7634045,0.285640717 15.4285898,0.285640717 C21.0937751,0.285640717 25.7143164,4.90618194 25.7143164,10.5713673 Z M54.0000644,25.9999571 C54.0000644,34.5178244 47.0893418,41.4285469 38.5714746,41.4285469 C30.0536073,41.4285469 23.1428847,34.5178244 23.1428847,25.9999571 C23.1428847,17.4820898 30.0536073,10.5713673 38.5714746,10.5713673 C47.0893418,10.5713673 54.0000644,17.4820898 54.0000644,25.9999571 Z M77.1429491,35.0401464 C77.1429491,39.4999732 73.3661589,41.4285469 69.348297,41.4285469 L63.964362,41.4285469 C61.2723945,38.2142574 57.4956043,36.4062195 53.3170278,36.2856836 C55.406316,33.2722872 56.571496,29.6562114 56.571496,25.9999571 C56.571496,25.1160275 56.4911388,24.2320978 56.3706029,23.3481682 C58.0982835,23.9508475 59.8661428,24.2722765 61.7143593,24.2722765 C67.1384729,24.2722765 71.3170493,20.8570938 72.1608003,20.8570938 C77.263485,20.8570938 77.1429491,31.7856783 77.1429491,35.0401464 Z M72.0000858,10.5713673 C72.0000858,16.2365526 67.3795446,20.8570938 61.7143593,20.8570938 C56.049174,20.8570938 51.4286327,16.2365526 51.4286327,10.5713673 C51.4286327,4.90618194 56.049174,0.285640717 61.7143593,0.285640717 C67.3795446,0.285640717 72.0000858,4.90618194 72.0000858,10.5713673 Z" fill="#FFFFFF"></path>
  </g>
</svg>
